<svg width="32" height="32" viewBox="0 0 32 32" fill="none" xmlns="http://www.w3.org/2000/svg">
<path d="M16 2.882C20.275 2.882 20.781 2.901 22.462 2.976C24.025 3.045 24.868 3.307 25.431 3.526C26.175 3.814 26.712 4.164 27.268 4.72C27.831 5.283 28.174 5.814 28.468 6.558C28.687 7.121 28.949 7.97 29.018 9.527C29.093 11.215 29.112 11.721 29.112 15.99C29.112 20.259 29.093 20.771 29.018 22.453C28.949 24.016 28.687 24.859 28.468 25.422C28.18 26.166 27.831 26.703 27.274 27.259C26.711 27.822 26.18 28.165 25.437 28.459C24.874 28.678 24.024 28.94 22.468 29.009C20.78 29.084 20.274 29.103 16.005 29.103C11.736 29.103 11.224 29.084 9.542 29.009C7.979 28.94 7.136 28.678 6.573 28.459C5.829 28.171 5.292 27.822 4.735 27.265C4.172 26.702 3.829 26.171 3.535 25.428C3.316 24.865 3.054 24.015 2.985 22.459C2.91 20.771 2.891 20.265 2.891 15.996C2.891 11.727 2.91 11.215 2.985 9.533C3.054 7.97 3.316 7.127 3.535 6.564C3.823 5.82 4.173 5.283 4.729 4.726C5.292 4.163 5.823 3.82 6.567 3.526C7.13 3.307 7.979 3.045 9.536 2.976C11.217 2.901 11.724 2.882 15.999 2.882H16ZM16 0.001C11.656 0.001 11.113 0.02 9.406 0.095C7.706 0.17 6.537 0.445 5.525 0.839C4.469 1.251 3.575 1.795 2.688 2.689C1.794 3.577 1.25 4.47 0.838 5.52C0.444 6.539 0.169 7.701 0.094 9.401C0.019 11.114 0 11.657 0 16.001C0 20.345 0.019 20.888 0.094 22.595C0.169 24.295 0.444 25.464 0.838 26.476C1.251 27.532 1.794 28.426 2.688 29.313C3.575 30.2 4.469 30.751 5.519 31.157C6.538 31.551 7.7 31.826 9.4 31.901C11.106 31.976 11.65 31.995 15.994 31.995C20.338 31.995 20.882 31.976 22.588 31.901C24.288 31.826 25.457 31.551 26.469 31.157C27.519 30.751 28.413 30.201 29.3 29.313C30.187 28.425 30.738 27.532 31.144 26.482C31.538 25.463 31.813 24.301 31.888 22.601C31.963 20.895 31.982 20.351 31.982 16.007C31.982 11.663 31.963 11.12 31.888 9.413C31.813 7.713 31.538 6.544 31.144 5.532C30.75 4.469 30.206 3.576 29.313 2.688C28.426 1.801 27.532 1.25 26.482 0.844C25.463 0.45 24.301 0.175 22.601 0.1C20.889 0.019 20.345 0 16.001 0L16 0.001Z" fill="white"/>
<path d="M16 7.782C11.463 7.782 7.78101 11.463 7.78101 16.001C7.78101 20.539 11.462 24.22 16 24.22C20.538 24.22 24.219 20.539 24.219 16.001C24.219 11.464 20.538 7.782 16 7.782V7.782ZM16 21.332C13.056 21.332 10.669 18.945 10.669 16.001C10.669 13.057 13.056 10.67 16 10.67C18.944 10.67 21.331 13.057 21.331 16.001C21.331 18.945 18.944 21.332 16 21.332Z" fill="white"/>
<path d="M26.462 7.457C26.462 8.517 25.603 9.376 24.543 9.376C23.483 9.376 22.624 8.517 22.624 7.457C22.624 6.397 23.483 5.538 24.543 5.538C25.603 5.538 26.462 6.397 26.462 7.457V7.457Z" fill="white"/>
</svg>
