<svg width="32" height="32" viewBox="0 0 32 32" fill="none" xmlns="http://www.w3.org/2000/svg">
<path d="M27.281 4.65C24.287 1.65 20.306 0 16.062 0C7.32399 0 0.211994 7.112 0.211994 15.856C0.211994 18.65 0.942994 21.381 2.33099 23.781L0.0809937 32L8.48699 29.794C10.806 31.056 13.412 31.725 16.062 31.725H16.068C24.806 31.725 31.924 24.612 31.924 15.869C31.924 11.631 30.274 7.65 27.28 4.65H27.281ZM16.069 29.05C13.7 29.05 11.381 28.413 9.35599 27.213L8.87499 26.925L3.88799 28.231L5.21899 23.368L4.90599 22.868C3.58099 20.774 2.88699 18.349 2.88699 15.856C2.88699 8.587 8.79899 2.675 16.075 2.675C19.594 2.675 22.906 4.05 25.394 6.537C27.882 9.031 29.25 12.337 29.25 15.862C29.244 23.137 23.331 29.05 16.069 29.05V29.05ZM23.294 19.175C22.9 18.975 20.95 18.019 20.588 17.887C20.226 17.755 19.963 17.687 19.694 18.087C19.432 18.481 18.669 19.375 18.438 19.643C18.207 19.905 17.976 19.943 17.582 19.743C17.188 19.543 15.907 19.124 14.394 17.774C13.219 16.724 12.419 15.424 12.188 15.03C11.957 14.636 12.163 14.417 12.363 14.224C12.544 14.049 12.757 13.761 12.957 13.53C13.157 13.299 13.219 13.136 13.351 12.868C13.482 12.606 13.42 12.374 13.32 12.174C13.22 11.974 12.426 10.024 12.101 9.23C11.782 8.455 11.451 8.561 11.207 8.549C10.976 8.537 10.713 8.537 10.451 8.537C10.189 8.537 9.75699 8.637 9.39499 9.031C9.03199 9.425 8.00799 10.387 8.00799 12.337C8.00799 14.287 9.42699 16.168 9.62699 16.437C9.82699 16.699 12.421 20.706 16.396 22.418C17.34 22.824 18.077 23.068 18.652 23.255C19.602 23.555 20.465 23.511 21.146 23.411C21.908 23.298 23.49 22.455 23.821 21.53C24.152 20.605 24.152 19.811 24.052 19.649C23.958 19.474 23.696 19.374 23.296 19.174L23.294 19.175Z" fill="white"/>
</svg>
